<svg viewBox="0 0 226 93" xmlns="http://www.w3.org/2000/svg"><g fill="#FFF" fill-rule="evenodd"><path d="M49.288 7.176l22.84 36.798-22.84 16.496-22.841-16.496 22.84-36.798zm0 78.674L26.447 47.782l22.84 16.495L72.13 47.782 49.288 85.85zM191.72 15.195a78.27 78.27 0 0 0-10.435 7.177l-4.533-4.213c-1.134-.814-2.063-.699-3.137-.148-8.08 6.103-13.542 13.106-16.389 21.42-2.848 8.339-3.082 17.87-1.163 29.089.115.64.493 1.249 1.016 1.627l19.035 13.308c.814.551 1.948.58 2.79.029.814-.522 1.25-1.599 1.048-2.557a70.073 70.073 0 0 1-.522-3.11l3.284 2.326c1.57.67 3.604-.407 3.892-2.442 1.483-5.58 6.19-10.17 10.403-13.455 6.887-5.289 16.216-9.328 25.484-7.874 1.57.263 3.14-1.394 2.82-2.963l-5.783-27.26c-.234-1.163-1.397-2.034-2.589-1.976-3.604.234-8.572 1.281-14.063 3.024l-7.875-11.277c-1.105-1.044-2.092-1.044-3.283-.724zm.55 5.52l12.786 18.28c-6.712 3.518-12.962 7.932-17.406 13.804-4.097 5.462-6.452 12.264-6.304 20.282l-2.528-1.743c-.115-5.347.785-10.024 2.557-14.21 2.79-6.51 7.759-11.944 14.995-16.71 1.221-.815 1.394-2.878.292-3.893l-11.63-10.726a81.173 81.173 0 0 1 7.238-5.084zM175.01 23.33l16.07 14.823c-6.453 4.767-11.422 10.316-14.269 16.999-2.614 6.103-3.399 13.106-2.557 20.923l-13.426-9.415c-1.627-10.2-1.307-18.539 1.106-25.6 2.297-6.773 6.567-12.44 13.076-17.729zM103.142 34.5h27.051l-7.97 7.97a1.203 1.203 0 0 0 .852 2.054c.307 0 .618-.116.853-.351L133.95 34.15c.056-.057.106-.116.15-.182.013-.016.016-.035.025-.05.032-.05.06-.104.085-.157a.68.68 0 0 0 .022-.075c.015-.05.034-.097.047-.15a1.205 1.205 0 0 0 0-.476c-.01-.054-.028-.101-.047-.151-.01-.026-.013-.05-.022-.076a.942.942 0 0 0-.085-.156c-.01-.016-.015-.035-.025-.05a1.189 1.189 0 0 0-.15-.182l-10.027-10.02a1.203 1.203 0 1 0-1.701 1.702l7.97 7.97-27.052-.003c-7.56 0-13.709 6.15-13.709 13.709a1.204 1.204 0 0 0 2.407 0c0-6.23 5.072-11.302 11.302-11.302z" fill-rule="nonzero"/><path d="M137.11 45.74c-.664 0-1.203.54-1.203 1.204 0 6.23-5.068 11.302-11.302 11.302H97.553l7.97-7.97a1.203 1.203 0 1 0-1.701-1.703L93.798 58.596a1.189 1.189 0 0 0-.15.182c-.012.016-.019.038-.028.053-.028.05-.06.1-.082.154a.572.572 0 0 0-.022.078c-.015.047-.034.098-.043.148a1.205 1.205 0 0 0-.026.238c0 .081.01.16.026.238.009.05.028.097.043.147.01.025.013.054.022.079.022.053.054.103.082.153.01.016.016.038.028.054.044.065.094.125.15.181l10.024 10.023c.235.235.542.351.852.351a1.203 1.203 0 0 0 .853-2.052l-7.97-7.97h27.05c7.56 0 13.71-6.15 13.71-13.71a1.21 1.21 0 0 0-1.207-1.203z"/></g></svg>