<svg viewBox="0 0 95 95" xmlns="http://www.w3.org/2000/svg"><defs><linearGradient x1="66.67%" y1="16.67%" x2="41.67%" y2="75%" id="a"><stop stop-color="#37AEE2" offset="0%"/><stop stop-color="#1E96C8" offset="100%"/></linearGradient><linearGradient x1="61.235%" y1="43.69%" x2="74.706%" y2="80.24%" id="b"><stop stop-color="#EFF7FC" offset="0%"/><stop stop-color="#FFF" offset="100%"/></linearGradient></defs><g fill="none" fill-rule="evenodd"><g transform="translate(.876 .629)" fill-rule="nonzero"><circle fill="url(#a)" cx="46.735" cy="46.654" r="46.535"/><path d="M38.203 67.983c-1.507 0-1.251-.57-1.771-2.005l-4.433-14.59 34.125-20.245" fill="#C8DAEA"/><path d="M38.203 67.983c1.164 0 1.678-.532 2.327-1.164l6.205-6.033-7.74-4.667" fill="#A9C9DD"/><path d="M38.994 56.12l18.754 13.856c2.14 1.18 3.684.569 4.217-1.987L69.6 32.016c.781-3.133-1.194-4.554-3.242-3.625L21.533 45.675c-3.06 1.228-3.042 2.934-.558 3.695l11.503 3.59 26.63-16.8c1.258-.763 2.411-.353 1.464.488" fill="url(#b)"/></g><path fill-opacity=".8" fill="#FFF" style="mix-blend-mode:luminosity" d="M0 0h95v95H0z"/><text font-family="OpenSans, Open Sans" font-size="14" fill="#8F8F8F"><tspan x="3.17" y="53">Coming soon.</tspan></text></g></svg>