<svg viewBox="0 0 16 16" xmlns="http://www.w3.org/2000/svg"><g fill="none"><path d="M14.908 3.212v9.566a2.181 2.181 0 0 1-2.18 2.158H3.182a2.18 2.18 0 0 1-2.18-2.18V3.212a2.18 2.18 0 0 1 2.18-2.18h9.546a2.18 2.18 0 0 1 2.18 2.18z" fill="#009FE3"/><path d="M10.295 8.848a21.298 21.298 0 0 0 1.188-2.82H8.725v-.972h3.4v-.592h-3.4V2.901H7.143v1.563h-3.4v.592h3.4v.971H4.284v.52h5.524s-.306.941-.82 1.873c-1.481-.458-2.849-.777-3.946-.777-2.632 0-3.216 1.323-3.092 2.532.1.965.819 2.373 3.012 2.373 2.004 0 3.621-1.148 4.617-2.515 1.898.874 3.903 1.95 5.33 2.745v-2.294c-1.508-.517-3.095-1.12-4.614-1.636zm-5.652 2.884c-1.853 0-2.14-1.045-2.173-1.669-.03-.545.339-1.57 2.431-1.57.779 0 2.014.398 3.4.977-.783 1.029-2.039 2.262-3.658 2.262z" fill="#FFF"/></g></svg>