<svg viewBox="0 0 16 16" xmlns="http://www.w3.org/2000/svg"><path d="M4.19 4.862a1.693 1.693 0 1 1-3.386.001 1.693 1.693 0 0 1 3.386 0m11.005-.001a1.693 1.693 0 1 1-3.385.001 1.693 1.693 0 0 1 3.385 0M14.138 6.98h-1.481c-1.059 0-2.116 1.058-2.751 1.48-.487.318-1.354.699-1.905.91-.55-.211-1.418-.592-1.905-.91-.635-.423-1.693-1.48-2.75-1.48H1.863c-.951 0-1.692.908-1.692 1.86v4.91h4.444V9.519s.762.254 1.227.592C6.73 10.79 7.62 11 8 11s1.27-.211 2.18-.889c.444-.338 1.206-.592 1.206-.592v4.233h4.444v-4.91c0-.953-.74-1.863-1.692-1.863z" fill="#5F508C" fill-rule="evenodd"/></svg>