<svg viewBox="0 0 16 16" xmlns="http://www.w3.org/2000/svg"><g fill="#5C4E88" fill-rule="evenodd"><path d="M13.01 12.812c-.076.735-.67 1.263-1.33 1.18l-5.614-.714c-.66-.084-1.134-.747-1.058-1.483l.981-9.607c.076-.735.671-1.263 1.33-1.18l5.615.714c.66.084 1.134.747 1.058 1.483l-.982 9.607z"/><path d="M4.67 14.243c-.636-.082-1.093-.727-1.021-1.442l.947-9.335A1.41 1.41 0 0 1 4.726 3H4.16C3.519 3 3 3.582 3 4.302v9.396C3 14.418 3.519 15 4.16 15h5.453c.135 0 .265-.028.387-.076l-5.33-.681z"/></g></svg>