<svg viewBox="0 0 16 16" xmlns="http://www.w3.org/2000/svg"><g fill="none" fill-rule="evenodd"><path d="M14.828 13.679c0 .682-.553 1.236-1.236 1.236H1.235A1.236 1.236 0 0 1 0 13.679V1.325C0 .643.553.09 1.235.09h12.357c.683 0 1.232.554 1.232 1.236v12.356l.004-.002z" fill="#EDAA00"/><path d="M2.197 8.418a.729.729 0 0 0-.35.046l-.001-1.912.699-.166v.3s.19-.418.691-.535c.553-.13.732.196.732.656V8.71l-.736.173-.001-1.801c0-.28-.132-.338-.29-.303-.21.047-.357.282-.357.578v1.238c-.001.002-.138-.159-.388-.176m6.084-.727l-.002-2.655.693-.164v.347s.18-.457.596-.563c.129-.032.192-.013.192-.013v.677s-.156-.006-.363.076c-.255.101-.384.321-.384.659v1.466l-.733.165v.005zm-3.653.863s-.113-.168-.113-.766V6.467l-.357.084v-.544l.357-.084V5.33l.738-.174-.001.593.52-.123v.544l-.52.123v1.346c0 .616.16.732.16.73l-.784.186zm1.222-1.579c0-.472.067-.816.212-1.08.171-.314.453-.519.863-.612.809-.184 1.098.295 1.09.937-.005.228-.004.34-.004.34l-1.425.335v.023c0 .447.09.661.375.599.247-.053.315-.206.334-.396.003-.031.005-.11.005-.11l.667-.159v.116c-.006.255-.08.887-1.007 1.107-.876.21-1.11-.326-1.11-1.103m1.104-1.196c-.235.054-.36.285-.365.669l.716-.17c.002-.018.002-.056.002-.116-.001-.285-.092-.446-.35-.383m5.298-.353c-.027-.81.182-1.45 1.084-1.655.575-.13.794.018.901.16.107.135.152.322.152.586v.048l-.705.167v-.1c0-.309-.085-.426-.31-.37-.267.067-.375.32-.375.824v.236c0 .509.072.75.375.682.267-.056.303-.29.308-.496l.002-.135.705-.167v.11c-.002.672-.357 1.094-1.02 1.25-.91.212-1.085-.315-1.121-1.145M9.814 6.556c0-.615.36-.81.903-1.034.487-.202.497-.302.5-.478.002-.148-.066-.273-.308-.211-.224.056-.283.218-.294.347-.006.07-.006.136-.006.136l-.683.16s-.01-.21.047-.404c.11-.368.434-.615.994-.745.727-.168.973.152.973.652v1.177c0 .572.107.652.107.652l-.672.158s-.063-.13-.089-.24c0 0-.148.37-.655.489-.535.124-.819-.206-.819-.661m1.4-.838s-.14.102-.357.205c-.223.11-.324.245-.324.452 0 .179.107.295.312.248.217-.055.368-.257.368-.539l.003-.368M2.819 9.569l1.176.803a.603.603 0 0 1 .268.505l-.001 3.492H2.927a1.277 1.277 0 0 1-1.276-1.277L1.65 9.114c0-.253.179-.456.458-.459a.449.449 0 0 1 .456.456v2.282c0 .071.044.125.125.124.082-.003.123-.058.123-.14.006-.082.01-1.806.01-1.806M.439 9.81a.406.406 0 0 0-.065.222.4.4 0 0 0 .484.393c.052-.01.319-.072.555-.129v-.719l-.974.234zm0 .983a.41.41 0 0 0-.065.22.4.4 0 0 0 .484.395c.052-.011.319-.072.555-.13v-.718l-.974.233zm0 .983a.4.4 0 0 0 .42.612c.05-.01.318-.07.554-.127v-.72l-.974.235zm.195-2.285V5.232l.777-.178v4.258zM12.83 2.196h.232l.17.688.16-.688h.224v.929h-.143v-.768l-.187.768h-.125l-.188-.768v.768h-.143zm.941.003h.263c.291 0 .33.187.33.463 0 .274-.035.463-.326.463h-.263V2.2h-.004zm.148.815h.122c.122 0 .172-.08.172-.352 0-.26-.044-.351-.172-.351h-.122v.703z" fill="#000" fill-rule="nonzero"/></g></svg>