<svg viewBox="0 0 16 16" xmlns="http://www.w3.org/2000/svg"><g fill="none"><path d="M6.073 4h1.854c.592.002 1.071.552 1.073 1.23v3.538c-.001.68-.48 1.23-1.073 1.232H6.073C5.48 9.998 5 9.448 5 8.768V5.231C5.002 4.55 5.48 4 6.073 4" fill="#FFF"/><path d="M10.452 7.91c-.002.634-.59 1.148-1.315 1.15H6.863c-.726-.002-1.313-.516-1.315-1.15V4.598c.002-.635.59-1.15 1.315-1.152h2.274c.726.002 1.313.517 1.315 1.152v3.31zM11 3.04a.788.788 0 0 0-.037-.24.355.355 0 0 0 .037-.157V1.396c0-.219-.203-.396-.453-.396s-.452.177-.452.396v.74a1.246 1.246 0 0 0-.137-.008H6.04c-.574.001-1.04.408-1.041.911v10.05c.002.502.467.91 1.041.911h3.92c.574-.002 1.04-.409 1.041-.912V3.04z" fill="#D2E288"/><path d="M6.11 6.006c.223.64.524.933.89.944-.56.502-1.18.858-1.834 1.05A4.92 4.92 0 0 1 4 7.715C4.948 7.484 5.655 6.92 6.108 6" fill="#82221C"/><path d="M8.372 4L11 5.325C9.662 7.083 7.405 7.13 5 6.905 6.604 6.506 7.72 5.525 8.372 4" fill="#ED2127"/></g></svg>