<svg viewBox="0 0 16 16" xmlns="http://www.w3.org/2000/svg"><g transform="translate(0 3)" fill="none"><path d="M15.954 5.236c0-2.871-3.567-5.212-7.967-5.212-4.4 0-7.968 2.341-7.968 5.212v.305c0 3.046 3.118 5.512 7.968 5.512 4.879 0 7.968-2.466 7.968-5.512v-.305z" fill="#060E9F"/><ellipse fill="#00AEEF" cx="7.988" cy="5.233" rx="7.661" ry="4.901"/><path d="M5.444 3.687c-.005.008-.08.087-.03.15.12.155.493.243.871.159.225-.05.513-.28.793-.502.302-.24.603-.48.904-.577.32-.102.524-.058.66-.017.148.044.323.142.6.35.525.395 2.633 2.235 2.997 2.553a18.18 18.18 0 0 1 3.368-1.084c-.154-.944-.729-1.81-1.6-2.516-1.215.51-2.698.777-4.148.068-.008-.004-.793-.377-1.568-.357-1.151.027-1.65.525-2.178 1.053l-.67.72z" fill="#FFF"/><path d="M12.153 6.004c-.025-.023-2.478-2.17-3.035-2.586-.323-.242-.5-.303-.688-.327a.939.939 0 0 0-.328.03c-.258.071-.597.297-.897.535-.31.248-.604.48-.876.542-.347.078-.772-.014-.965-.145a.428.428 0 0 1-.162-.176c-.071-.166.06-.298.082-.323l.677-.733c.08-.078.158-.157.24-.234a4.408 4.408 0 0 0-.617.139c-.245.069-.482.135-.72.135a6.876 6.876 0 0 1-.734-.114 10.98 10.98 0 0 1-1.954-.706C1.214 2.758.57 3.654.384 4.641c.139.036.361.102.455.123 2.178.485 2.855.983 2.98 1.088a.72.72 0 0 1 1.131.066.823.823 0 0 1 .52-.183.97.97 0 0 1 .311.054.715.715 0 0 1 .439.396.725.725 0 0 1 .303-.065.916.916 0 0 1 .362.08c.402.173.464.567.428.862a.865.865 0 0 1 .845 1.265c.13.073.46.238.75.2.231-.028.32-.107.351-.152.022-.03.044-.066.023-.092l-.614-.676s-.101-.096-.068-.133c.034-.036.097.017.142.054.313.261.694.656.694.656s.032.054.173.08a.64.64 0 0 0 .485-.114.736.736 0 0 0 .108-.107c.15-.196-.024-.4-.024-.4l-.718-.808s-.103-.095-.068-.133c.035-.038.097.017.142.054.228.19.549.512.856.814.06.044.33.21.689-.024.215-.143.26-.317.255-.45a.513.513 0 0 0-.152-.3l-.98-.985s-.104-.088-.067-.133c.037-.045.097.017.141.054a56.253 56.253 0 0 1 1.158 1.036c.012.01.304.216.665-.013a.444.444 0 0 0 .219-.351.52.52 0 0 0-.165-.4z" fill="#FFF"/><path d="M7.398 7.253c-.152 0-.318.088-.34.075-.012-.008.01-.069.024-.104.015-.035.216-.637-.273-.846-.373-.162-.602.02-.68.101-.02.022-.03.02-.032-.007-.008-.108-.054-.402-.377-.5-.461-.141-.755.18-.832.296a.533.533 0 1 0-.159.453.02.02 0 0 1 0 .018c-.022.132-.064.613.44.808.201.079.373.02.515-.08.043-.03.05-.016.043.023-.018.124.005.388.377.54.283.114.45 0 .559-.104.047-.044.06-.037.063.03a.672.672 0 1 0 .672-.703z" fill="#FFF"/><path d="M12.248 5.747c-.754-.66-2.503-2.179-2.976-2.532-.27-.204-.455-.311-.616-.36a1.07 1.07 0 0 0-.688.018c-.306.097-.61.339-.905.573l-.015.012c-.274.216-.558.444-.772.492-.094.021-.19.032-.287.032-.24 0-.456-.07-.538-.173-.014-.017-.005-.045.026-.085l.004-.005.665-.717c.521-.52 1.013-1.012 2.145-1.038h.054c.705 0 1.41.316 1.489.352a4.61 4.61 0 0 0 2.029.485c.715 0 1.454-.176 2.227-.533a8.73 8.73 0 0 0-.27-.215c-.68.295-1.33.444-1.956.444a4.317 4.317 0 0 1-1.898-.457c-.033-.015-.808-.382-1.62-.383h-.064c-.952.023-1.487.36-1.848.656-.35.009-.652.093-.921.168-.24.067-.447.125-.65.125-.083 0-.233-.008-.246-.008-.233-.007-1.404-.294-2.336-.647a6.047 6.047 0 0 0-.275.208c.973.4 2.157.708 2.532.732.104.007.215.018.323.019.247 0 .494-.07.733-.137a6.19 6.19 0 0 1 .46-.114l-.13.13-.676.732c-.054.053-.168.196-.092.373.039.081.1.15.177.197.162.108.45.182.717.182.097 0 .192-.01.286-.03.284-.064.58-.3.895-.55.25-.2.607-.453.88-.527a1 1 0 0 1 .309-.03c.18.023.354.084.665.318.554.417 3.009 2.564 3.032 2.586a.472.472 0 0 1 .148.361.393.393 0 0 1-.197.314.596.596 0 0 1-.323.1c-.1 0-.2-.029-.284-.083-.01-.007-.85-.778-1.16-1.037a.26.26 0 0 0-.145-.078.08.08 0 0 0-.064.03c-.049.06.006.144.07.198l.99.987a.465.465 0 0 1 .135.266c.008.162-.07.3-.233.407a.632.632 0 0 1-.348.116c-.1 0-.197-.03-.28-.085l-.141-.14c-.258-.253-.523-.514-.718-.677a.26.26 0 0 0-.147-.076.083.083 0 0 0-.062.026c-.022.025-.038.07.018.143.015.02.032.037.05.054l.716.805c.006.007.148.175.016.344l-.025.032a.74.74 0 0 1-.067.064.573.573 0 0 1-.447.103.244.244 0 0 1-.141-.06l-.009-.009c-.04-.04-.4-.409-.7-.658a.247.247 0 0 0-.14-.075.085.085 0 0 0-.064.03c-.06.064.03.161.067.197l.611.673a.14.14 0 0 1-.023.041c-.021.03-.096.105-.318.132a.623.623 0 0 1-.081.005c-.229 0-.472-.11-.599-.178a.912.912 0 0 0-.824-1.3h-.033c.017-.23-.016-.665-.462-.856a.96.96 0 0 0-.382-.084.777.777 0 0 0-.28.05.767.767 0 0 0-.446-.377 1 1 0 0 0-.327-.057.862.862 0 0 0-.51.161.768.768 0 0 0-1.144-.064C3.624 5.639 2.87 5.16.851 4.7a11.938 11.938 0 0 1-.46-.126c-.024.11-.042.22-.054.331 0 0 .372.089.446.108 2.064.458 2.747.935 2.86 1.023A.774.774 0 0 0 4.5 7.098a.902.902 0 0 0 .584.674.707.707 0 0 0 .451.032c.059.146.188.33.48.448.096.04.2.061.304.063.08 0 .16-.015.236-.042a.91.91 0 0 0 1.496.288c.147.082.458.23.772.23a.97.97 0 0 0 .12-.01c.311-.04.457-.161.523-.256A.38.38 0 0 0 9.5 8.47c.08.025.163.038.247.039a.833.833 0 0 0 .499-.179c.161-.117.278-.285.295-.427v-.007a.83.83 0 0 0 .167.017.928.928 0 0 0 .512-.161c.318-.209.373-.48.368-.66a.83.83 0 0 0 .169.019.885.885 0 0 0 .48-.148.7.7 0 0 0 .334-.543.734.734 0 0 0-.108-.439c.533-.229 1.75-.673 3.184-.996a3.216 3.216 0 0 0-.045-.33c-1.15.254-2.273.62-3.353 1.09zm-4.849 2.8a.62.62 0 0 1-.623-.595c0-.028-.004-.104-.068-.104a.119.119 0 0 0-.076.04.439.439 0 0 1-.306.138.539.539 0 0 1-.202-.044c-.355-.144-.36-.388-.346-.485a.09.09 0 0 0-.013-.074l-.022-.02H5.72a.108.108 0 0 0-.062.025.52.52 0 0 1-.302.108.469.469 0 0 1-.169-.033c-.468-.182-.43-.624-.408-.757a.064.064 0 0 0-.02-.062l-.033-.028-.031.03a.485.485 0 1 1 .144-.412l.017.13.071-.11c.008-.013.205-.31.566-.31a.717.717 0 0 1 .211.034c.288.087.337.349.344.457a.06.06 0 0 0 .06.067.08.08 0 0 0 .053-.03.49.49 0 0 1 .358-.15.687.687 0 0 1 .27.06c.457.196.25.777.247.783-.039.097-.04.14-.003.162l.018.013h.013a.32.32 0 0 0 .09-.023.752.752 0 0 1 .244-.054.624.624 0 1 1 0 1.246v-.001z" fill="#060E9F"/></g></svg>