<svg viewBox="0 0 16 16" xmlns="http://www.w3.org/2000/svg"><g transform="translate(1 1)" fill="none"><circle fill="#FFF" cx="7" cy="7" r="7"/><path d="M14 6.995A7.005 7.005 0 0 1 7 14c-3.864 0-7-3.138-7-7.005 0-1.068.236-2.08.661-2.977a5.719 5.719 0 0 0-.415 2.098c0 3.176 2.56 3.63 3.646 3.62 1.653-.018 3.59-.822 5.224-2.334l-.274 1.55c-.066.35.17.662.52.671h.141c.369 0 .624-.302.69-.67l.586-3.31c.066-.368-.17-.661-.539-.661H6.934c-.369 0-.709.198-.775.567 0 .019-.019.123-.028.151-.057.35.189.615.548.615h1.729l-.085.085c-1.19 1.125-2.655 1.749-3.874 1.749-1.209 0-2.57-.766-2.57-2.496C1.88 2.08 5.234 0 6.992 0A6.993 6.993 0 0 1 14 6.995z" fill="#DF2127"/></g></svg>