<svg viewBox="0 0 16 16" xmlns="http://www.w3.org/2000/svg"><g fill="none"><path d="M5.377 13l.2-1.417-.446-.012H3L4.481 1.114a.143.143 0 0 1 .042-.082A.114.114 0 0 1 4.602 1h3.593c1.194 0 2.017.276 2.447.822.201.256.33.523.392.818.065.309.066.678.002 1.128l-.004.033v.288l.201.127c.17.1.305.215.408.346.173.22.284.497.332.827.048.34.032.743-.048 1.2-.092.525-.24.983-.441 1.358-.185.345-.42.631-.7.853-.266.21-.583.37-.941.473-.347.1-.743.151-1.177.151h-.28c-.2 0-.394.08-.546.224a.974.974 0 0 0-.286.567l-.02.127-.355 2.498-.016.092c-.004.029-.011.043-.022.053a.056.056 0 0 1-.037.015H5.377z" fill="#253B80"/><path d="M11.957 4c-.012.08-.025.16-.04.244C11.407 7.066 9.66 8.04 7.43 8.04H6.295c-.273 0-.503.214-.545.503l-.582 3.97-.164 1.125c-.028.19.108.362.286.362h2.014a.497.497 0 0 0 .479-.44l.02-.11.379-2.59.024-.143a.497.497 0 0 1 .479-.44h.301c1.952 0 3.48-.854 3.926-3.322.186-1.031.09-1.892-.404-2.497A1.951 1.951 0 0 0 11.957 4z" fill="#179BD7"/><path d="M10.484 4.159a4.262 4.262 0 0 0-.48-.096A6.787 6.787 0 0 0 9.036 4H6.104a.51.51 0 0 0-.202.041.427.427 0 0 0-.26.314l-.624 3.542L5 8c.041-.233.263-.405.527-.405h1.098c2.155 0 3.843-.785 4.337-3.055A4.6 4.6 0 0 0 11 4.343a2.803 2.803 0 0 0-.516-.184z" fill="#222D65"/><path d="M5.732 4.157a.477.477 0 0 1 .253-.36.435.435 0 0 1 .197-.047h2.854c.338 0 .654.024.942.073a4.122 4.122 0 0 1 .467.11c.036.01.072.023.108.034.141.05.273.109.395.176.142-.962-.002-1.617-.494-2.21C9.91 1.28 8.93 1 7.676 1H4.035a.53.53 0 0 0-.514.465L2.004 11.618c-.03.2.117.382.308.382h2.249l.564-3.782.607-4.061z" fill="#253B80"/></g></svg>