<svg viewBox="0 0 16 16" xmlns="http://www.w3.org/2000/svg"><path d="M14.847 14.758c.126.156-.067.332-.21.19-1.432-1.268-2.637-1.63-3.828-1.68-.64-.01-1.28.021-1.917.094l-.398.033h-.176a6.63 6.63 0 0 1-.704.04 6.347 6.347 0 0 1-3.138-.793 5.972 5.972 0 0 1-2.29-2.256 6.18 6.18 0 0 1-.825-3.126c-.005-1.1.28-2.183.826-3.138A6.148 6.148 0 0 1 7.528 1a6.423 6.423 0 0 1 3.182.816 6.025 6.025 0 0 1 2.296 2.263 6.18 6.18 0 0 1 .836 3.135c0 .426-.043.85-.126 1.267 0 .06-.027.133-.047.216-.02.083-.033.136-.053.202a7.156 7.156 0 0 1-.703 1.503c-.04.067-.063 0-.07-.023a2.856 2.856 0 0 0-1.284-2.137l-.036-.023a3.211 3.211 0 0 0-.385-.202 3.981 3.981 0 0 0-.568-.2c-.122-.032-.401-.02-.301-.119.44-.05.886-.05 1.327 0h.04c.013-.143.02-.292.02-.444A3.981 3.981 0 0 0 10.447 4.3 3.915 3.915 0 0 0 7.56 3.107 3.809 3.809 0 0 0 4.681 4.3a4.024 4.024 0 0 0-1.16 2.93 3.935 3.935 0 0 0 1.19 2.916 3.855 3.855 0 0 0 2.85 1.19h.16v-.039c-.063-.82-.077-1.496.09-1.224a5.902 5.902 0 0 0 .84 1.098l.032.033c.793.803 1.572.995 2.402 1.204h.053l.411.103c.995.262 2.054.687 3.298 2.23m-2.74-4.93c-.123-.037-.213 0-.26.073a.664.664 0 0 0 .12.587c.14.219.259.332.352.332a.11.11 0 0 0 .083-.04.468.468 0 0 0 .046-.332.83.83 0 0 0-.332-.604m-1.38 1.019a.365.365 0 0 0-.292.123.594.594 0 0 0 .163.78c.12.098.27.152.425.152a.451.451 0 0 0 .371-.166c.146-.196.063-.474-.215-.71a.707.707 0 0 0-.448-.18" fill="#E48A20"/></svg>