<svg viewBox="0 0 16 16" xmlns="http://www.w3.org/2000/svg"><path d="M7.76 1c1.06 0 2.068.254 2.973.709.142.067.285.147.426.227l-.62.575-.93-1.003L8.006 2.98l-.944-1.056-2.947 2.741 1.887 2.153-.737.668 1.862 2.153-.737.668 2.663 3.063 1.576-1.498L12 13.476a7.633 7.633 0 0 1-.892.615A6.582 6.582 0 0 1 7.773 15C4.037 15 1 11.858 1 7.994.987 4.156 4.025 1 7.76 1zM7 7.418L8.582 6 10 7.582 8.418 9 7 7.418zm1 3.012L9.57 9 11 10.582 9.418 12 8 10.43zM6 4.418L7.582 3 9 4.582 7.417 6 6 4.418zm3-.474L10.05 3 11 4.045 9.95 5 9 3.944zm2 5L12.05 8 13 9.056 11.949 10 11 8.944zm1 2L13.051 10 14 11.045 12.95 12 12 10.944zm0-4.995L13.05 5 14 6.051 12.95 7 12 5.95zm-1-1.991L12.05 3 13 4.059 11.949 5 11 3.958zm2 4.991L14.042 8 15 9.051 13.941 10 13 8.95zm-3-3L11.051 5 12 6.05 10.95 7 10 5.95z" fill="#036CB5"/></svg>