<svg viewBox="0 0 16 16" xmlns="http://www.w3.org/2000/svg"><path d="M6.491 8.992c-.766.42-1.107-.392-1.107-.392S4.378 6.885 4.11 6.148c-.12-.336-.018-.364.092-.439.213-.149.406.122.406.122s.693.662 1.034.97c.461.41.932.149.932.149l7.245-3.227C12.564 2.091 10.432 1 8.005 1 4.138 1 1 3.76 1 7.136c0 1.837.914 3.47 2.372 4.607l-.268 1.865c-.018.14.046.27.166.345a.41.41 0 0 0 .176.047.339.339 0 0 0 .193-.056l1.579-1.138a7.95 7.95 0 0 0 2.777.504c3.867 0 7.005-2.76 7.005-6.136 0-.989-.258-1.912-.72-2.723-1.956 1.137-7.161 4.196-7.789 4.541z" fill="#35B34A"/></svg>