<svg viewBox="0 0 16 16" xmlns="http://www.w3.org/2000/svg"><g fill="none" fill-rule="evenodd"><path fill="#000" d="M0 3h16v10H0z"/><path d="M9.212 5H8.77l-.497 3.678h-.016L7.714 5H5.315l-.543 3.678h-.016L4.262 5H2.187l1.265 5.845h2.514l.542-3.787h.017l.542 3.787h2.514l.126-.585c-.322-.34-.494-.798-.494-1.375V5zM1.006 5H.661l1.243 5.845h.345zm1.914 5.845h.346L2.024 5h-.345z" fill="#FD0" fill-rule="nonzero"/><path d="M9.31 5v3.885c0 .578.173 1.035.494 1.376L10.94 5H9.31z" fill="#FFF" fill-rule="nonzero"/><path d="M12.915 5v3.79c0 .46-.22.64-.462.64-.243 0-.463-.18-.463-.64V5h-.494l-1.168 5.406c.474.393 1.191.594 2.125.594 1.767 0 2.78-.704 2.78-2.115V5h-2.318z" fill="#FD0" fill-rule="nonzero"/></g></svg>