<svg viewBox="0 0 128 128" xmlns="http://www.w3.org/2000/svg"><defs><linearGradient x1="-45.621%" y1="18.495%" x2="50%" y2="18.495%" id="a"><stop stop-color="#000681" offset="0%"/><stop stop-color="#1ECBB6" offset="100%"/></linearGradient><linearGradient x1="50%" y1="60.926%" x2="50%" y2="152.495%" id="b"><stop stop-color="#FFF" offset="0%"/><stop stop-color="#000681" offset="100%"/></linearGradient></defs><g transform="translate(3 3)" fill="none"><rect fill="#000681" width="121.07" height="121.07" rx="60.535"/><path d="M60.6 71.625c5.345 0 9.833-4.609 9.833-10.125 0-5.307-4.278-9.423-9.833-9.423H49.558V41.672H60.6c11.214 0 20.237 8.683 20.237 19.828 0 11.202-9.083 20.529-20.237 20.529H21.46V33.342c0-5.747 4.658-10.405 10.404-10.405v48.688H60.6z" fill="#1ECBB6"/><path d="M49.033 38.562c0-5.306-4.278-9.422-9.833-9.422H28.158V18.735H39.2c11.214 0 20.237 8.683 20.237 19.827a2250.71 2250.71 0 0 0-10.404 0z" fill="url(#a)" transform="translate(21.4 22.937)"/><path d="M49.83 33.402v38.22H39.425V22.998h23.697c21.49 0 38.913 17.422 38.913 38.913 0 21.44-17.37 38.558-38.913 38.558H31.899c-5.746 0-10.404-4.659-10.404-10.405h41.627c15.83 0 28.508-12.494 28.508-28.153 0-15.745-12.763-28.508-28.508-28.508H49.83z" fill="#FFF"/><path fill="url(#b)" d="M28.43 10.464v38.221H18.024V.06z" transform="translate(21.4 22.937)"/></g></svg>