<svg viewBox="0 0 128 128" xmlns="http://www.w3.org/2000/svg"><defs><linearGradient x1="73.56%" y1="2.796%" x2="25.044%" y2="100%" id="a"><stop stop-color="#11C4D1" offset="0%"/><stop stop-color="#0062AD" offset="100%"/></linearGradient></defs><path d="M124.887 23.723c4.037 54.676-31.11 80.52-62.617 83.275C32.977 109.56 5.404 91.56 2.985 63.906.99 41.059 15.111 31.332 26.205 30.362c11.411-1 21 6.87 21.832 16.397.801 9.16-4.915 13.33-8.89 13.677-3.144.275-7.099-1.633-7.456-5.731-.306-3.521 1.03-4.001.704-7.742-.581-6.66-6.389-7.435-9.568-7.16-3.848.337-10.83 4.828-9.85 16.014.985 11.284 11.804 20.199 25.986 18.959 15.305-1.337 25.96-13.253 26.762-29.966a6.073 6.073 0 0 1 .546-2.567l.005-.02a7.2 7.2 0 0 1 .577-1.006 13.53 13.53 0 0 1 1.286-1.623c.005-.015.005-.015.015-.015.449-.498.917-.978 1.403-1.44 6.686-6.307 30.763-21.183 53.534-16.473a2.281 2.281 0 0 1 1.796 2.057" fill="url(#a)"/></svg>