<svg viewBox="0 0 128 128" xmlns="http://www.w3.org/2000/svg"><path d="M73.714 63.45c-7.252.417-11.797-1.268-19.05-.85-1.8.1-3.586.36-5.339.777 1.07-13.374 10.564-25.074 23.472-25.817 7.922-.456 15.84 4.42 16.269 12.337.423 7.782-5.528 12.987-15.351 13.552M54.239 90.806c-7.589.428-15.173-4.138-15.585-11.546-.405-7.282 5.297-12.154 14.708-12.683 6.946-.39 11.3 1.187 18.248.795a29.853 29.853 0 0 0 5.113-.727C75.7 79.162 66.606 90.112 54.24 90.806m9.268-87.13C30.09 3.677 3 30.687 3 64.008s27.09 60.332 60.507 60.332c33.418 0 60.508-27.011 60.508-60.332 0-33.32-27.09-60.331-60.508-60.331" fill="#4360DF" fill-rule="evenodd"/></svg>